<?xml version="1.0" standalone="no"?>
<!DOCTYPE svg PUBLIC "-//W3C//DTD SVG 20010904//EN"
 "http://www.w3.org/TR/2001/REC-SVG-20010904/DTD/svg10.dtd">
<svg version="1.0" xmlns="http://www.w3.org/2000/svg"
 width="512.000000pt" height="512.000000pt" viewBox="0 0 512.000000 512.000000"
 preserveAspectRatio="xMidYMid meet">
<metadata>
Created by potrace 1.11, written by Peter Selinger 2001-2013
</metadata>
<g transform="translate(0.000000,512.000000) scale(0.100000,-0.100000)"
fill="#000000" stroke="none">
<path d="M2380 5110 c-137 -20 -176 -29 -295 -67 -316 -102 -594 -314 -780
-593 -133 -200 -207 -390 -241 -620 -3 -19 -7 -46 -9 -60 -7 -43 -7 -242 0
-315 10 -106 40 -240 75 -340 49 -137 49 -132 -2 -140 -49 -9 -164 -49 -259
-92 -185 -85 -387 -241 -519 -402 -19 -24 -40 -48 -46 -55 -10 -10 -40 -56
-111 -172 -77 -124 -157 -365 -182 -549 -12 -91 -7 -351 9 -440 102 -582 519
-1050 1075 -1206 151 -43 234 -53 415 -54 276 0 435 37 685 161 141 69 260
153 370 261 54 53 146 156 172 192 1 2 27 -13 56 -32 111 -74 330 -170 441
-193 162 -35 203 -39 371 -38 173 0 226 5 331 29 280 64 525 198 725 395 152
151 234 262 310 426 43 90 106 275 115 332 3 20 7 42 9 49 13 38 20 149 19
298 -1 133 -6 192 -22 271 -86 406 -311 742 -647 965 -100 67 -236 135 -336
168 l-67 22 8 37 c38 171 27 423 -25 634 -14 54 -40 136 -60 184 -19 48 -32
91 -28 97 3 6 2 7 -4 4 -6 -4 -19 13 -29 36 -28 61 -129 212 -188 281 -174
201 -330 312 -611 436 -47 21 -193 61 -273 76 -97 18 -367 26 -452 14z"/>
</g>
</svg>
